<?xml version="1.0" encoding="UTF-8" standalone="no"?>
<!DOCTYPE svg PUBLIC "-//W3C//DTD SVG 1.1//EN"
 "http://www.w3.org/Graphics/SVG/1.1/DTD/svg11.dtd">
<!-- Generated by graphviz version 2.47.3 (20210619.1520)
 -->
<!-- Title: G Pages: 1 -->
<svg width="1075pt" height="415pt"
 viewBox="0.00 0.00 1075.20 415.20" xmlns="http://www.w3.org/2000/svg" xmlns:xlink="http://www.w3.org/1999/xlink">
<g id="graph0" class="graph" transform="scale(1 1) rotate(0) translate(21.6 393.6)">
<title>G</title>
<polygon fill="#111111" stroke="transparent" points="-21.6,21.6 -21.6,-393.6 1053.6,-393.6 1053.6,21.6 -21.6,21.6"/>
<!-- checks/check&#45;for&#45;collisions/check&#45;for&#45;collisions.js -->
<g id="node1" class="node">
<title>checks/check&#45;for&#45;collisions/check&#45;for&#45;collisions.js</title>
<path fill="none" stroke="#cfffac" d="M1013.33,-372C1013.33,-372 719.67,-372 719.67,-372 715.83,-372 712,-368.17 712,-364.33 712,-364.33 712,-356.67 712,-356.67 712,-352.83 715.83,-349 719.67,-349 719.67,-349 1013.33,-349 1013.33,-349 1017.17,-349 1021,-352.83 1021,-356.67 1021,-356.67 1021,-364.33 1021,-364.33 1021,-368.17 1017.17,-372 1013.33,-372"/>
<text text-anchor="middle" x="866.5" y="-356.8" font-family="Arial" font-size="14.00" fill="#cfffac">checks/check&#45;for&#45;collisions/check&#45;for&#45;collisions.js</text>
</g>
<!-- checks/check&#45;for&#45;collisions/check&#45;for&#45;collisions.test.js -->
<g id="node2" class="node">
<title>checks/check&#45;for&#45;collisions/check&#45;for&#45;collisions.test.js</title>
<path fill="none" stroke="#c6c5fe" d="M528.83,-351C528.83,-351 209.17,-351 209.17,-351 205.33,-351 201.5,-347.17 201.5,-343.33 201.5,-343.33 201.5,-335.67 201.5,-335.67 201.5,-331.83 205.33,-328 209.17,-328 209.17,-328 528.83,-328 528.83,-328 532.67,-328 536.5,-331.83 536.5,-335.67 536.5,-335.67 536.5,-343.33 536.5,-343.33 536.5,-347.17 532.67,-351 528.83,-351"/>
<text text-anchor="middle" x="369" y="-335.8" font-family="Arial" font-size="14.00" fill="#c6c5fe">checks/check&#45;for&#45;collisions/check&#45;for&#45;collisions.test.js</text>
</g>
<!-- modules.js -->
<g id="node3" class="node">
<title>modules.js</title>
<path fill="none" stroke="#ff6c60" d="M657.33,-187C657.33,-187 590.67,-187 590.67,-187 586.83,-187 583,-183.17 583,-179.33 583,-179.33 583,-171.67 583,-171.67 583,-167.83 586.83,-164 590.67,-164 590.67,-164 657.33,-164 657.33,-164 661.17,-164 665,-167.83 665,-171.67 665,-171.67 665,-179.33 665,-179.33 665,-183.17 661.17,-187 657.33,-187"/>
<text text-anchor="middle" x="624" y="-171.8" font-family="Arial" font-size="14.00" fill="#ff6c60">modules.js</text>
</g>
<!-- checks/check&#45;for&#45;collisions/check&#45;for&#45;collisions.test.js&#45;&gt;modules.js -->
<g id="edge1" class="edge">
<title>checks/check&#45;for&#45;collisions/check&#45;for&#45;collisions.test.js&#45;&gt;modules.js</title>
<path fill="none" stroke="#757575" d="M532.58,-327.92C537.58,-325.43 542.4,-322.64 547,-319.5 589.58,-290.44 610.07,-229.7 618.32,-197.17"/>
<polygon fill="#757575" stroke="#757575" points="621.76,-197.84 620.67,-187.3 614.95,-196.22 621.76,-197.84"/>
</g>
<!-- modules.js&#45;&gt;checks/check&#45;for&#45;collisions/check&#45;for&#45;collisions.js -->
<g id="edge6" class="edge">
<title>modules.js&#45;&gt;checks/check&#45;for&#45;collisions/check&#45;for&#45;collisions.js</title>
<path fill="none" stroke="#757575" d="M626.49,-187.09C631.12,-217.89 648.25,-302.03 701,-340.5 702.48,-341.58 703.98,-342.61 705.52,-343.61"/>
<polygon fill="#757575" stroke="#757575" points="704.16,-346.87 714.56,-348.9 707.69,-340.83 704.16,-346.87"/>
</g>
<!-- checks/check&#45;initial&#45;position/check&#45;initial&#45;position.js -->
<g id="node4" class="node">
<title>checks/check&#45;initial&#45;position/check&#45;initial&#45;position.js</title>
<path fill="none" stroke="#cfffac" d="M1020.33,-331C1020.33,-331 712.67,-331 712.67,-331 708.83,-331 705,-327.17 705,-323.33 705,-323.33 705,-315.67 705,-315.67 705,-311.83 708.83,-308 712.67,-308 712.67,-308 1020.33,-308 1020.33,-308 1024.17,-308 1028,-311.83 1028,-315.67 1028,-315.67 1028,-323.33 1028,-323.33 1028,-327.17 1024.17,-331 1020.33,-331"/>
<text text-anchor="middle" x="866.5" y="-315.8" font-family="Arial" font-size="14.00" fill="#cfffac">checks/check&#45;initial&#45;position/check&#45;initial&#45;position.js</text>
</g>
<!-- modules.js&#45;&gt;checks/check&#45;initial&#45;position/check&#45;initial&#45;position.js -->
<g id="edge7" class="edge">
<title>modules.js&#45;&gt;checks/check&#45;initial&#45;position/check&#45;initial&#45;position.js</title>
<path fill="none" stroke="#757575" d="M628.34,-187.17C636.25,-212.48 658.72,-272.34 701,-299.5 703.17,-300.89 705.39,-302.22 707.66,-303.47"/>
<polygon fill="#757575" stroke="#757575" points="706.09,-306.6 716.59,-307.96 709.23,-300.34 706.09,-306.6"/>
</g>
<!-- checks/check&#45;instructions/check&#45;instructions.js -->
<g id="node6" class="node">
<title>checks/check&#45;instructions/check&#45;instructions.js</title>
<path fill="none" stroke="#cfffac" d="M1006.83,-290C1006.83,-290 726.17,-290 726.17,-290 722.33,-290 718.5,-286.17 718.5,-282.33 718.5,-282.33 718.5,-274.67 718.5,-274.67 718.5,-270.83 722.33,-267 726.17,-267 726.17,-267 1006.83,-267 1006.83,-267 1010.67,-267 1014.5,-270.83 1014.5,-274.67 1014.5,-274.67 1014.5,-282.33 1014.5,-282.33 1014.5,-286.17 1010.67,-290 1006.83,-290"/>
<text text-anchor="middle" x="866.5" y="-274.8" font-family="Arial" font-size="14.00" fill="#cfffac">checks/check&#45;instructions/check&#45;instructions.js</text>
</g>
<!-- modules.js&#45;&gt;checks/check&#45;instructions/check&#45;instructions.js -->
<g id="edge8" class="edge">
<title>modules.js&#45;&gt;checks/check&#45;instructions/check&#45;instructions.js</title>
<path fill="none" stroke="#757575" d="M631.88,-187.3C643.48,-205.98 668.86,-241.96 701,-258.5 704.33,-260.21 707.75,-261.8 711.23,-263.28"/>
<polygon fill="#757575" stroke="#757575" points="710.02,-266.56 720.61,-266.93 712.56,-260.04 710.02,-266.56"/>
</g>
<!-- checks/check&#45;move&#45;is&#45;safe/check&#45;move&#45;is&#45;safe.js -->
<g id="node8" class="node">
<title>checks/check&#45;move&#45;is&#45;safe/check&#45;move&#45;is&#45;safe.js</title>
<path fill="none" stroke="#cfffac" d="M1016.33,-249C1016.33,-249 716.67,-249 716.67,-249 712.83,-249 709,-245.17 709,-241.33 709,-241.33 709,-233.67 709,-233.67 709,-229.83 712.83,-226 716.67,-226 716.67,-226 1016.33,-226 1016.33,-226 1020.17,-226 1024,-229.83 1024,-233.67 1024,-233.67 1024,-241.33 1024,-241.33 1024,-245.17 1020.17,-249 1016.33,-249"/>
<text text-anchor="middle" x="866.5" y="-233.8" font-family="Arial" font-size="14.00" fill="#cfffac">checks/check&#45;move&#45;is&#45;safe/check&#45;move&#45;is&#45;safe.js</text>
</g>
<!-- modules.js&#45;&gt;checks/check&#45;move&#45;is&#45;safe/check&#45;move&#45;is&#45;safe.js -->
<g id="edge9" class="edge">
<title>modules.js&#45;&gt;checks/check&#45;move&#45;is&#45;safe/check&#45;move&#45;is&#45;safe.js</title>
<path fill="none" stroke="#757575" d="M641.64,-187.17C656.49,-196.96 679.2,-210.45 701,-217.5 708.14,-219.81 715.53,-221.86 723.04,-223.67"/>
<polygon fill="#757575" stroke="#757575" points="722.46,-227.13 732.99,-225.92 724.01,-220.3 722.46,-227.13"/>
</g>
<!-- checks/checks&#45;project&#45;set&#45;up/check&#45;project&#45;set&#45;up.js -->
<g id="node10" class="node">
<title>checks/checks&#45;project&#45;set&#45;up/check&#45;project&#45;set&#45;up.js</title>
<path fill="none" stroke="#cfffac" d="M1024.33,-208C1024.33,-208 708.67,-208 708.67,-208 704.83,-208 701,-204.17 701,-200.33 701,-200.33 701,-192.67 701,-192.67 701,-188.83 704.83,-185 708.67,-185 708.67,-185 1024.33,-185 1024.33,-185 1028.17,-185 1032,-188.83 1032,-192.67 1032,-192.67 1032,-200.33 1032,-200.33 1032,-204.17 1028.17,-208 1024.33,-208"/>
<text text-anchor="middle" x="866.5" y="-192.8" font-family="Arial" font-size="14.00" fill="#cfffac">checks/checks&#45;project&#45;set&#45;up/check&#45;project&#45;set&#45;up.js</text>
</g>
<!-- modules.js&#45;&gt;checks/checks&#45;project&#45;set&#45;up/check&#45;project&#45;set&#45;up.js -->
<g id="edge10" class="edge">
<title>modules.js&#45;&gt;checks/checks&#45;project&#45;set&#45;up/check&#45;project&#45;set&#45;up.js</title>
<path fill="none" stroke="#757575" d="M665.25,-179.01C681.88,-180.47 702.23,-182.24 723.53,-184.1"/>
<polygon fill="#757575" stroke="#757575" points="723.44,-187.61 733.71,-184.99 724.05,-180.64 723.44,-187.61"/>
</g>
<!-- plateau/plateau.js -->
<g id="node12" class="node">
<title>plateau/plateau.js</title>
<path fill="none" stroke="#cfffac" d="M919.83,-167C919.83,-167 813.17,-167 813.17,-167 809.33,-167 805.5,-163.17 805.5,-159.33 805.5,-159.33 805.5,-151.67 805.5,-151.67 805.5,-147.83 809.33,-144 813.17,-144 813.17,-144 919.83,-144 919.83,-144 923.67,-144 927.5,-147.83 927.5,-151.67 927.5,-151.67 927.5,-159.33 927.5,-159.33 927.5,-163.17 923.67,-167 919.83,-167"/>
<text text-anchor="middle" x="866.5" y="-151.8" font-family="Arial" font-size="14.00" fill="#cfffac">plateau/plateau.js</text>
</g>
<!-- modules.js&#45;&gt;plateau/plateau.js -->
<g id="edge11" class="edge">
<title>modules.js&#45;&gt;plateau/plateau.js</title>
<path fill="none" stroke="#757575" d="M665.25,-172.15C700.59,-169.21 752.78,-164.87 795.02,-161.36"/>
<polygon fill="#757575" stroke="#757575" points="795.58,-164.83 805.25,-160.51 794.99,-157.85 795.58,-164.83"/>
</g>
<!-- rover/change&#45;direction/change&#45;direction.js -->
<g id="node13" class="node">
<title>rover/change&#45;direction/change&#45;direction.js</title>
<path fill="none" stroke="#cfffac" d="M992.83,-126C992.83,-126 740.17,-126 740.17,-126 736.33,-126 732.5,-122.17 732.5,-118.33 732.5,-118.33 732.5,-110.67 732.5,-110.67 732.5,-106.83 736.33,-103 740.17,-103 740.17,-103 992.83,-103 992.83,-103 996.67,-103 1000.5,-106.83 1000.5,-110.67 1000.5,-110.67 1000.5,-118.33 1000.5,-118.33 1000.5,-122.17 996.67,-126 992.83,-126"/>
<text text-anchor="middle" x="866.5" y="-110.8" font-family="Arial" font-size="14.00" fill="#cfffac">rover/change&#45;direction/change&#45;direction.js</text>
</g>
<!-- modules.js&#45;&gt;rover/change&#45;direction/change&#45;direction.js -->
<g id="edge12" class="edge">
<title>modules.js&#45;&gt;rover/change&#45;direction/change&#45;direction.js</title>
<path fill="none" stroke="#757575" d="M642.63,-163.88C657.54,-154.64 679.81,-142.19 701,-135.5 709.97,-132.67 719.32,-130.22 728.82,-128.1"/>
<polygon fill="#757575" stroke="#757575" points="729.7,-131.49 738.76,-126.01 728.26,-124.64 729.7,-131.49"/>
</g>
<!-- rover/get&#45;name/get&#45;name.js -->
<g id="node14" class="node">
<title>rover/get&#45;name/get&#45;name.js</title>
<path fill="none" stroke="#cfffac" d="M950.83,-85C950.83,-85 782.17,-85 782.17,-85 778.33,-85 774.5,-81.17 774.5,-77.33 774.5,-77.33 774.5,-69.67 774.5,-69.67 774.5,-65.83 778.33,-62 782.17,-62 782.17,-62 950.83,-62 950.83,-62 954.67,-62 958.5,-65.83 958.5,-69.67 958.5,-69.67 958.5,-77.33 958.5,-77.33 958.5,-81.17 954.67,-85 950.83,-85"/>
<text text-anchor="middle" x="866.5" y="-69.8" font-family="Arial" font-size="14.00" fill="#cfffac">rover/get&#45;name/get&#45;name.js</text>
</g>
<!-- modules.js&#45;&gt;rover/get&#45;name/get&#45;name.js -->
<g id="edge13" class="edge">
<title>modules.js&#45;&gt;rover/get&#45;name/get&#45;name.js</title>
<path fill="none" stroke="#757575" d="M632.15,-163.71C643.96,-145.42 669.4,-110.64 701,-94.5 720.35,-84.62 742.58,-78.74 764.31,-75.36"/>
<polygon fill="#757575" stroke="#757575" points="764.83,-78.82 774.25,-73.98 763.86,-71.89 764.83,-78.82"/>
</g>
<!-- rover/move&#45;forwards/move&#45;forwards.js -->
<g id="node15" class="node">
<title>rover/move&#45;forwards/move&#45;forwards.js</title>
<path fill="none" stroke="#ff6c60" d="M982.83,-44C982.83,-44 750.17,-44 750.17,-44 746.33,-44 742.5,-40.17 742.5,-36.33 742.5,-36.33 742.5,-28.67 742.5,-28.67 742.5,-24.83 746.33,-21 750.17,-21 750.17,-21 982.83,-21 982.83,-21 986.67,-21 990.5,-24.83 990.5,-28.67 990.5,-28.67 990.5,-36.33 990.5,-36.33 990.5,-40.17 986.67,-44 982.83,-44"/>
<text text-anchor="middle" x="866.5" y="-28.8" font-family="Arial" font-size="14.00" fill="#ff6c60">rover/move&#45;forwards/move&#45;forwards.js</text>
</g>
<!-- modules.js&#45;&gt;rover/move&#45;forwards/move&#45;forwards.js -->
<g id="edge14" class="edge">
<title>modules.js&#45;&gt;rover/move&#45;forwards/move&#45;forwards.js</title>
<path fill="none" stroke="#757575" d="M627.21,-163.81C634.01,-136.76 656.89,-72.79 701,-44.5 733.39,-23.72 776.81,-18.92 810.9,-20.35"/>
<polygon fill="#757575" stroke="#757575" points="810.97,-23.86 821.16,-20.99 811.4,-16.87 810.97,-23.86"/>
</g>
<!-- checks/check&#45;initial&#45;position/check&#45;initial&#45;position.test.js -->
<g id="node5" class="node">
<title>checks/check&#45;initial&#45;position/check&#45;initial&#45;position.test.js</title>
<path fill="none" stroke="#c6c5fe" d="M535.33,-310C535.33,-310 202.67,-310 202.67,-310 198.83,-310 195,-306.17 195,-302.33 195,-302.33 195,-294.67 195,-294.67 195,-290.83 198.83,-287 202.67,-287 202.67,-287 535.33,-287 535.33,-287 539.17,-287 543,-290.83 543,-294.67 543,-294.67 543,-302.33 543,-302.33 543,-306.17 539.17,-310 535.33,-310"/>
<text text-anchor="middle" x="369" y="-294.8" font-family="Arial" font-size="14.00" fill="#c6c5fe">checks/check&#45;initial&#45;position/check&#45;initial&#45;position.test.js</text>
</g>
<!-- checks/check&#45;initial&#45;position/check&#45;initial&#45;position.test.js&#45;&gt;modules.js -->
<g id="edge2" class="edge">
<title>checks/check&#45;initial&#45;position/check&#45;initial&#45;position.test.js&#45;&gt;modules.js</title>
<path fill="none" stroke="#757575" d="M529.84,-286.91C535.77,-284.46 541.51,-281.67 547,-278.5 579.5,-259.73 602.19,-220.9 613.88,-196.65"/>
<polygon fill="#757575" stroke="#757575" points="617.2,-197.79 618.2,-187.25 610.84,-194.86 617.2,-197.79"/>
</g>
<!-- checks/check&#45;instructions/check&#45;instructions.test.js -->
<g id="node7" class="node">
<title>checks/check&#45;instructions/check&#45;instructions.test.js</title>
<path fill="none" stroke="#c6c5fe" d="M521.83,-269C521.83,-269 216.17,-269 216.17,-269 212.33,-269 208.5,-265.17 208.5,-261.33 208.5,-261.33 208.5,-253.67 208.5,-253.67 208.5,-249.83 212.33,-246 216.17,-246 216.17,-246 521.83,-246 521.83,-246 525.67,-246 529.5,-249.83 529.5,-253.67 529.5,-253.67 529.5,-261.33 529.5,-261.33 529.5,-265.17 525.67,-269 521.83,-269"/>
<text text-anchor="middle" x="369" y="-253.8" font-family="Arial" font-size="14.00" fill="#c6c5fe">checks/check&#45;instructions/check&#45;instructions.test.js</text>
</g>
<!-- checks/check&#45;instructions/check&#45;instructions.test.js&#45;&gt;modules.js -->
<g id="edge3" class="edge">
<title>checks/check&#45;instructions/check&#45;instructions.test.js&#45;&gt;modules.js</title>
<path fill="none" stroke="#757575" d="M523.03,-245.9C531.26,-243.52 539.3,-240.74 547,-237.5 569.91,-227.86 591.4,-209.05 605.65,-194.67"/>
<polygon fill="#757575" stroke="#757575" points="608.39,-196.87 612.78,-187.22 603.33,-192.03 608.39,-196.87"/>
</g>
<!-- checks/check&#45;move&#45;is&#45;safe/check&#45;move&#45;is&#45;safe.test.js -->
<g id="node9" class="node">
<title>checks/check&#45;move&#45;is&#45;safe/check&#45;move&#45;is&#45;safe.test.js</title>
<path fill="none" stroke="#c6c5fe" d="M531.83,-228C531.83,-228 206.17,-228 206.17,-228 202.33,-228 198.5,-224.17 198.5,-220.33 198.5,-220.33 198.5,-212.67 198.5,-212.67 198.5,-208.83 202.33,-205 206.17,-205 206.17,-205 531.83,-205 531.83,-205 535.67,-205 539.5,-208.83 539.5,-212.67 539.5,-212.67 539.5,-220.33 539.5,-220.33 539.5,-224.17 535.67,-228 531.83,-228"/>
<text text-anchor="middle" x="369" y="-212.8" font-family="Arial" font-size="14.00" fill="#c6c5fe">checks/check&#45;move&#45;is&#45;safe/check&#45;move&#45;is&#45;safe.test.js</text>
</g>
<!-- checks/check&#45;move&#45;is&#45;safe/check&#45;move&#45;is&#45;safe.test.js&#45;&gt;modules.js -->
<g id="edge4" class="edge">
<title>checks/check&#45;move&#45;is&#45;safe/check&#45;move&#45;is&#45;safe.test.js&#45;&gt;modules.js</title>
<path fill="none" stroke="#757575" d="M494.16,-204.97C511.96,-202.6 530,-199.79 547,-196.5 556.48,-194.67 566.5,-192.25 576.04,-189.71"/>
<polygon fill="#757575" stroke="#757575" points="577.06,-193.06 585.78,-187.04 575.21,-186.31 577.06,-193.06"/>
</g>
<!-- checks/checks&#45;project&#45;set&#45;up/check&#45;project&#45;set&#45;up.test.js -->
<g id="node11" class="node">
<title>checks/checks&#45;project&#45;set&#45;up/check&#45;project&#45;set&#45;up.test.js</title>
<path fill="none" stroke="#c6c5fe" d="M539.33,-187C539.33,-187 198.67,-187 198.67,-187 194.83,-187 191,-183.17 191,-179.33 191,-179.33 191,-171.67 191,-171.67 191,-167.83 194.83,-164 198.67,-164 198.67,-164 539.33,-164 539.33,-164 543.17,-164 547,-167.83 547,-171.67 547,-171.67 547,-179.33 547,-179.33 547,-183.17 543.17,-187 539.33,-187"/>
<text text-anchor="middle" x="369" y="-171.8" font-family="Arial" font-size="14.00" fill="#c6c5fe">checks/checks&#45;project&#45;set&#45;up/check&#45;project&#45;set&#45;up.test.js</text>
</g>
<!-- checks/checks&#45;project&#45;set&#45;up/check&#45;project&#45;set&#45;up.test.js&#45;&gt;modules.js -->
<g id="edge5" class="edge">
<title>checks/checks&#45;project&#45;set&#45;up/check&#45;project&#45;set&#45;up.test.js&#45;&gt;modules.js</title>
<path fill="none" stroke="#757575" d="M547.09,-175.5C556.1,-175.5 564.7,-175.5 572.66,-175.5"/>
<polygon fill="#757575" stroke="#757575" points="572.73,-179 582.73,-175.5 572.73,-172 572.73,-179"/>
</g>
<!-- rover/move&#45;forwards/move&#45;forwards.js&#45;&gt;modules.js -->
<g id="edge19" class="edge">
<title>rover/move&#45;forwards/move&#45;forwards.js&#45;&gt;modules.js</title>
<path fill="none" stroke="#757575" d="M745.17,-44.11C729.52,-48.11 714.33,-53.95 701,-62.5 666.7,-84.5 645.23,-128.09 634.18,-154.42"/>
<polygon fill="#757575" stroke="#757575" points="630.85,-153.33 630.33,-163.91 637.34,-155.96 630.85,-153.33"/>
</g>
<!-- plateau/plateau.test.js -->
<g id="node16" class="node">
<title>plateau/plateau.test.js</title>
<path fill="none" stroke="#c6c5fe" d="M435.33,-146C435.33,-146 302.67,-146 302.67,-146 298.83,-146 295,-142.17 295,-138.33 295,-138.33 295,-130.67 295,-130.67 295,-126.83 298.83,-123 302.67,-123 302.67,-123 435.33,-123 435.33,-123 439.17,-123 443,-126.83 443,-130.67 443,-130.67 443,-138.33 443,-138.33 443,-142.17 439.17,-146 435.33,-146"/>
<text text-anchor="middle" x="369" y="-130.8" font-family="Arial" font-size="14.00" fill="#c6c5fe">plateau/plateau.test.js</text>
</g>
<!-- plateau/plateau.test.js&#45;&gt;modules.js -->
<g id="edge15" class="edge">
<title>plateau/plateau.test.js&#45;&gt;modules.js</title>
<path fill="none" stroke="#757575" d="M443.12,-140.86C475.16,-144.25 513.1,-149.06 547,-155.5 555.67,-157.15 564.81,-159.24 573.62,-161.44"/>
<polygon fill="#757575" stroke="#757575" points="572.84,-164.86 583.4,-163.96 574.59,-158.08 572.84,-164.86"/>
</g>
<!-- rover/change&#45;direction/change&#45;direction.test.js -->
<g id="node17" class="node">
<title>rover/change&#45;direction/change&#45;direction.test.js</title>
<path fill="none" stroke="#c6c5fe" d="M507.83,-105C507.83,-105 230.17,-105 230.17,-105 226.33,-105 222.5,-101.17 222.5,-97.33 222.5,-97.33 222.5,-89.67 222.5,-89.67 222.5,-85.83 226.33,-82 230.17,-82 230.17,-82 507.83,-82 507.83,-82 511.67,-82 515.5,-85.83 515.5,-89.67 515.5,-89.67 515.5,-97.33 515.5,-97.33 515.5,-101.17 511.67,-105 507.83,-105"/>
<text text-anchor="middle" x="369" y="-89.8" font-family="Arial" font-size="14.00" fill="#c6c5fe">rover/change&#45;direction/change&#45;direction.test.js</text>
</g>
<!-- rover/change&#45;direction/change&#45;direction.test.js&#45;&gt;modules.js -->
<g id="edge16" class="edge">
<title>rover/change&#45;direction/change&#45;direction.test.js&#45;&gt;modules.js</title>
<path fill="none" stroke="#757575" d="M515.65,-104.06C526.45,-106.87 537.01,-110.31 547,-114.5 569.64,-124 591.04,-142.33 605.32,-156.43"/>
<polygon fill="#757575" stroke="#757575" points="602.99,-159.05 612.49,-163.74 607.99,-154.15 602.99,-159.05"/>
</g>
<!-- rover/mars&#45;rover.js -->
<g id="node18" class="node">
<title>rover/mars&#45;rover.js</title>
<path fill="none" stroke="#c6c5fe" d="M426.33,-64C426.33,-64 311.67,-64 311.67,-64 307.83,-64 304,-60.17 304,-56.33 304,-56.33 304,-48.67 304,-48.67 304,-44.83 307.83,-41 311.67,-41 311.67,-41 426.33,-41 426.33,-41 430.17,-41 434,-44.83 434,-48.67 434,-48.67 434,-56.33 434,-56.33 434,-60.17 430.17,-64 426.33,-64"/>
<text text-anchor="middle" x="369" y="-48.8" font-family="Arial" font-size="14.00" fill="#c6c5fe">rover/mars&#45;rover.js</text>
</g>
<!-- rover/mars&#45;rover.js&#45;&gt;modules.js -->
<g id="edge17" class="edge">
<title>rover/mars&#45;rover.js&#45;&gt;modules.js</title>
<path fill="none" stroke="#757575" d="M434.04,-48.14C469.5,-48.55 513.11,-53.9 547,-73.5 579.28,-92.17 602.05,-130.59 613.8,-154.59"/>
<polygon fill="#757575" stroke="#757575" points="610.75,-156.32 618.16,-163.88 617.09,-153.34 610.75,-156.32"/>
</g>
<!-- rover/mars&#45;rover.test.js -->
<g id="node19" class="node">
<title>rover/mars&#45;rover.test.js</title>
<path fill="none" stroke="#c6c5fe" d="M147.33,-64C147.33,-64 7.67,-64 7.67,-64 3.83,-64 0,-60.17 0,-56.33 0,-56.33 0,-48.67 0,-48.67 0,-44.83 3.83,-41 7.67,-41 7.67,-41 147.33,-41 147.33,-41 151.17,-41 155,-44.83 155,-48.67 155,-48.67 155,-56.33 155,-56.33 155,-60.17 151.17,-64 147.33,-64"/>
<text text-anchor="middle" x="77.5" y="-48.8" font-family="Arial" font-size="14.00" fill="#c6c5fe">rover/mars&#45;rover.test.js</text>
</g>
<!-- rover/mars&#45;rover.test.js&#45;&gt;rover/mars&#45;rover.js -->
<g id="edge18" class="edge">
<title>rover/mars&#45;rover.test.js&#45;&gt;rover/mars&#45;rover.js</title>
<path fill="none" stroke="#757575" d="M155.32,-52.5C198.03,-52.5 250.95,-52.5 293.31,-52.5"/>
<polygon fill="#757575" stroke="#757575" points="293.57,-56 303.57,-52.5 293.57,-49 293.57,-56"/>
</g>
<!-- rover/move&#45;forwards/move&#45;forwards.test.js -->
<g id="node20" class="node">
<title>rover/move&#45;forwards/move&#45;forwards.test.js</title>
<path fill="none" stroke="#c6c5fe" d="M498.33,-23C498.33,-23 239.67,-23 239.67,-23 235.83,-23 232,-19.17 232,-15.33 232,-15.33 232,-7.67 232,-7.67 232,-3.83 235.83,0 239.67,0 239.67,0 498.33,0 498.33,0 502.17,0 506,-3.83 506,-7.67 506,-7.67 506,-15.33 506,-15.33 506,-19.17 502.17,-23 498.33,-23"/>
<text text-anchor="middle" x="369" y="-7.8" font-family="Arial" font-size="14.00" fill="#c6c5fe">rover/move&#45;forwards/move&#45;forwards.test.js</text>
</g>
<!-- rover/move&#45;forwards/move&#45;forwards.test.js&#45;&gt;modules.js -->
<g id="edge20" class="edge">
<title>rover/move&#45;forwards/move&#45;forwards.test.js&#45;&gt;modules.js</title>
<path fill="none" stroke="#757575" d="M506.38,-13.08C520.85,-17.2 534.74,-23.13 547,-31.5 589.58,-60.56 610.07,-121.3 618.32,-153.83"/>
<polygon fill="#757575" stroke="#757575" points="614.95,-154.78 620.67,-163.7 621.76,-153.16 614.95,-154.78"/>
</g>
</g>
</svg>
